<svg width="628.105" height="139.501" viewBox="0 0 628.105 139.501" xmlns="http://www.w3.org/2000/svg"><g id="svgGroup" stroke-linecap="round" fill-rule="evenodd" font-size="9pt" fill="#59a2ab"><path d="M 356.915 75.634 A 42.89 42.89 0 0 0 358.796 75.36 A 32.938 32.938 0 0 0 358.705 78.1 A 22.532 22.532 0 0 0 359.151 82.695 A 15.744 15.744 0 0 0 362.655 89.95 Q 366.605 94.5 372.705 94.5 A 17.536 17.536 0 0 0 375.228 94.324 A 13.563 13.563 0 0 0 380.055 92.7 Q 383.205 90.9 387.405 85.6 Q 388.546 88.138 389.979 89.952 A 11.054 11.054 0 0 0 399.005 94.5 Q 403.805 94.5 408.705 90.95 A 44.897 44.897 0 0 0 410.067 89.923 A 48.936 48.936 0 0 0 413.593 86.856 A 18.699 18.699 0 0 0 415.355 88.95 A 17.026 17.026 0 0 0 416.762 90.232 Q 419.954 92.827 424.382 93.844 A 27.786 27.786 0 0 0 430.605 94.5 A 25.824 25.824 0 0 0 437.213 93.611 A 33.965 33.965 0 0 0 443.255 91.35 A 32.437 32.437 0 0 0 449.151 87.688 A 15.699 15.699 0 0 0 450.705 90 A 11.86 11.86 0 0 0 455.899 93.729 A 13.778 13.778 0 0 0 460.605 94.5 Q 468.505 94.5 473.705 86.1 A 16.672 16.672 0 0 0 474.726 88.403 A 12.716 12.716 0 0 0 477.855 92.25 A 11.7 11.7 0 0 0 478.288 92.588 A 9.221 9.221 0 0 0 483.905 94.5 A 10.999 10.999 0 0 0 485.95 94.306 Q 487.788 93.959 489.678 92.993 A 20.867 20.867 0 0 0 492.805 91 A 44.987 44.987 0 0 0 496.185 88.15 A 54.085 54.085 0 0 0 501.505 82.4 A 6.749 6.749 0 0 0 502.327 81.205 A 73.247 73.247 0 0 0 503.455 79.8 A 44.956 44.956 0 0 0 504.589 78.284 Q 507.08 74.805 509.605 70 Q 510.349 70.85 511.149 71.855 A 73.558 73.558 0 0 1 512.605 73.75 Q 514.205 75.9 515.255 78.2 Q 516.305 80.5 516.405 83.1 A 40.679 40.679 0 0 1 515.937 83.045 Q 515.095 82.942 513.755 82.75 Q 512.005 82.5 510.705 82.5 Q 507.005 82.5 505.105 84.4 A 7.796 7.796 0 0 0 505.046 84.46 A 6.138 6.138 0 0 0 503.205 88.9 A 6.34 6.34 0 0 0 504.389 92.579 A 9.419 9.419 0 0 0 505.955 94.3 Q 508.705 96.7 513.905 96.7 Q 519.405 96.7 523.405 93.3 A 39.966 39.966 0 0 0 525.147 93.211 Q 527.703 93.023 529.917 92.509 A 21.732 21.732 0 0 0 534.655 90.85 A 19.456 19.456 0 0 0 537.887 88.798 Q 539.48 87.57 541.124 85.889 A 48.689 48.689 0 0 0 544.205 82.4 A 7.94 7.94 0 0 0 544.278 82.307 A 8.564 8.564 0 0 0 544.418 82.116 A 35.487 35.487 0 0 0 544.807 83.131 Q 547.439 89.42 552.544 92.23 A 20.157 20.157 0 0 0 562.405 94.5 A 24.839 24.839 0 0 0 563.629 94.47 A 20.322 20.322 0 0 0 574.105 91.1 A 38.566 38.566 0 0 0 577.555 88.506 A 45.062 45.062 0 0 0 583.505 82.4 A 6.749 6.749 0 0 0 584.327 81.205 A 73.247 73.247 0 0 0 585.455 79.8 A 44.956 44.956 0 0 0 586.589 78.284 Q 589.08 74.805 591.605 70 Q 592.349 70.85 593.149 71.855 A 73.558 73.558 0 0 1 594.605 73.75 Q 596.205 75.9 597.255 78.2 Q 598.305 80.5 598.405 83.1 A 40.679 40.679 0 0 1 597.937 83.045 Q 597.095 82.942 595.755 82.75 Q 594.005 82.5 592.705 82.5 Q 589.005 82.5 587.105 84.4 A 7.796 7.796 0 0 0 587.046 84.46 A 6.138 6.138 0 0 0 585.205 88.9 A 6.34 6.34 0 0 0 586.389 92.579 A 9.419 9.419 0 0 0 587.955 94.3 Q 590.705 96.7 595.905 96.7 Q 601.405 96.7 605.405 93.3 A 39.966 39.966 0 0 0 607.147 93.211 Q 609.703 93.023 611.917 92.509 A 21.732 21.732 0 0 0 616.655 90.85 A 19.456 19.456 0 0 0 619.887 88.798 Q 621.48 87.57 623.124 85.889 A 48.689 48.689 0 0 0 626.205 82.4 A 7.94 7.94 0 0 0 626.278 82.307 Q 628.105 79.927 628.105 76.2 Q 628.105 74.97 627.848 74.048 A 4.376 4.376 0 0 0 627.355 72.9 A 3.165 3.165 0 0 0 627.055 72.492 A 2.225 2.225 0 0 0 625.305 71.7 A 3.137 3.137 0 0 0 623.445 72.318 A 4.764 4.764 0 0 0 622.605 73.1 A 73.384 73.384 0 0 1 620.528 75.573 Q 617.096 79.472 614.164 81.517 A 14.721 14.721 0 0 1 611.105 83.2 A 50.435 50.435 0 0 0 611.188 82.4 Q 611.305 81.166 611.305 80.4 Q 611.305 76.9 609.655 73.95 Q 608.572 72.014 606.822 69.54 A 96.454 96.454 0 0 0 604.805 66.8 A 73.042 73.042 0 0 1 604.607 66.556 Q 603.228 64.849 602.324 63.513 A 21.516 21.516 0 0 1 601.555 62.3 Q 600.981 61.316 600.721 60.421 A 5.085 5.085 0 0 1 600.505 59 Q 600.505 57.281 601.356 55.043 A 23.412 23.412 0 0 1 602.305 52.9 A 16.071 16.071 0 0 0 602.557 52.413 A 14.116 14.116 0 0 0 603.405 50.3 A 16.869 16.869 0 0 0 603.575 49.714 Q 603.805 48.856 603.805 48.4 A 1.583 1.583 0 0 0 603.261 47.15 A 2.248 2.248 0 0 0 602.705 46.8 A 3.822 3.822 0 0 0 602.024 46.575 Q 601.267 46.393 600.099 46.331 A 24.733 24.733 0 0 0 598.805 46.3 A 16.214 16.214 0 0 0 598.702 46.301 Q 592.789 46.338 590.905 50.7 Q 588.705 55.9 586.405 60.75 Q 584.824 64.085 583.526 66.497 A 62.792 62.792 0 0 1 582.405 68.5 A 57.531 57.531 0 0 1 582.144 68.907 Q 580.268 71.801 577.279 75.685 A 212.651 212.651 0 0 1 575.894 77.461 A 59.041 59.041 0 0 1 574.285 79.021 A 35.701 35.701 0 0 1 572.105 80.9 Q 568.805 83.5 564.505 83.5 A 11.441 11.441 0 0 1 562.47 83.327 A 7.985 7.985 0 0 1 556.755 79.3 Q 554.305 75.1 554.305 64.7 A 101.939 101.939 0 0 1 554.316 63.267 Q 554.352 60.728 554.505 56.9 L 566.705 56.9 Q 578.005 56.9 578.005 50 Q 578.005 48.746 577.7 48.015 A 1.879 1.879 0 0 0 577.305 47.4 Q 576.799 46.894 575.823 46.754 A 5.768 5.768 0 0 0 575.005 46.7 L 563.805 46.7 A 47.53 47.53 0 0 0 567.378 43.198 A 33.828 33.828 0 0 0 576.805 19.7 A 25.393 25.393 0 0 0 576.797 19.072 Q 576.744 16.894 576.312 15.015 A 14.264 14.264 0 0 0 574.405 10.4 A 10.433 10.433 0 0 0 574.01 9.832 Q 571.669 6.7 567.805 6.7 A 11.751 11.751 0 0 0 565.532 6.921 Q 562.925 7.433 560.484 9.138 A 20.38 20.38 0 0 0 557.155 12.1 Q 554.197 15.328 551.756 19.876 A 59.1 59.1 0 0 0 548.705 26.6 Q 545.205 35.7 543.505 46.7 L 537.805 46.7 A 6.292 6.292 0 0 0 536.993 46.75 Q 534.133 47.123 533.491 50.256 A 10.231 10.231 0 0 0 533.305 52.3 A 8.767 8.767 0 0 0 533.383 53.513 Q 533.592 55 534.355 55.8 Q 535.405 56.9 538.405 56.9 L 542.305 56.9 Q 542.005 61.4 542.005 65.8 A 63.566 63.566 0 0 0 542.266 71.88 A 3.137 3.137 0 0 0 541.445 72.318 A 4.764 4.764 0 0 0 540.605 73.1 A 73.384 73.384 0 0 1 538.528 75.573 Q 535.096 79.472 532.164 81.517 A 14.721 14.721 0 0 1 529.105 83.2 A 50.435 50.435 0 0 0 529.188 82.4 Q 529.305 81.166 529.305 80.4 Q 529.305 76.9 527.655 73.95 Q 526.572 72.014 524.822 69.54 A 96.454 96.454 0 0 0 522.805 66.8 A 73.042 73.042 0 0 1 522.607 66.556 Q 521.228 64.849 520.324 63.513 A 21.516 21.516 0 0 1 519.555 62.3 Q 518.981 61.316 518.721 60.421 A 5.085 5.085 0 0 1 518.505 59 Q 518.505 57.281 519.356 55.043 A 23.412 23.412 0 0 1 520.305 52.9 A 16.071 16.071 0 0 0 520.557 52.413 A 14.116 14.116 0 0 0 521.405 50.3 A 16.869 16.869 0 0 0 521.575 49.714 Q 521.805 48.856 521.805 48.4 A 1.583 1.583 0 0 0 521.261 47.15 A 2.248 2.248 0 0 0 520.705 46.8 A 3.822 3.822 0 0 0 520.024 46.575 Q 519.267 46.393 518.099 46.331 A 24.733 24.733 0 0 0 516.805 46.3 A 16.214 16.214 0 0 0 516.702 46.301 Q 510.789 46.338 508.905 50.7 Q 506.705 55.9 504.405 60.75 Q 502.824 64.085 501.526 66.497 A 62.792 62.792 0 0 1 500.405 68.5 A 57.531 57.531 0 0 1 500.144 68.907 Q 498.268 71.801 495.279 75.685 A 212.651 212.651 0 0 1 492.565 79.131 A 73.965 73.965 0 0 1 492.274 79.431 A 39.347 39.347 0 0 1 490.605 81.05 Q 487.905 83.5 486.005 83.5 A 3.041 3.041 0 0 1 485.784 83.492 A 2.394 2.394 0 0 1 484.055 82.6 A 2.866 2.866 0 0 1 483.853 82.326 Q 483.536 81.837 483.402 81.201 A 4.872 4.872 0 0 1 483.305 80.2 A 19.067 19.067 0 0 1 483.308 79.88 Q 483.365 76.451 484.626 69.36 A 245.902 245.902 0 0 1 485.605 64.2 A 306.979 306.979 0 0 0 485.792 63.209 Q 487.105 56.165 487.105 54.2 A 4.851 4.851 0 0 0 487.103 54.059 Q 487.005 50.7 482.205 50.7 Q 479.905 50.7 477.805 51.1 A 16.337 16.337 0 0 0 477.638 50.428 Q 477.185 48.764 476.555 48.05 A 1.767 1.767 0 0 0 476.174 47.729 Q 475.341 47.2 473.605 47.2 A 21.082 21.082 0 0 0 467.404 48.124 A 24.014 24.014 0 0 0 460.555 51.55 Q 454.405 55.9 450.705 63.05 A 32.51 32.51 0 0 0 447.017 77.23 A 41.8 41.8 0 0 1 445.975 78.168 A 29.142 29.142 0 0 1 441.555 81.35 A 27.22 27.22 0 0 1 440.227 82.072 Q 436.227 84.1 432.705 84.1 Q 422.605 84.1 422.605 72.5 A 27.259 27.259 0 0 1 422.722 69.944 A 22.235 22.235 0 0 1 423.805 64.8 Q 425.005 61.3 427.005 59.25 Q 427.708 58.529 428.448 58.062 A 5.272 5.272 0 0 1 431.305 57.2 A 4.051 4.051 0 0 1 431.359 57.201 Q 431.759 57.206 432.097 57.291 A 2.108 2.108 0 0 1 433.155 57.9 Q 433.805 58.6 433.805 59.9 A 7.712 7.712 0 0 1 433.672 61.294 A 10.395 10.395 0 0 1 433.305 62.7 Q 433.205 63.1 433.005 64 A 10.596 10.596 0 0 0 432.953 64.249 Q 432.88 64.617 432.843 64.949 A 5.907 5.907 0 0 0 432.805 65.6 A 4.141 4.141 0 0 0 432.82 65.954 A 2.922 2.922 0 0 0 433.955 68.1 Q 434.692 68.677 435.736 68.884 A 6.523 6.523 0 0 0 437.005 69 A 5.166 5.166 0 0 0 440.526 67.683 A 7.342 7.342 0 0 0 441.855 66.1 Q 443.705 63.2 443.705 59 A 15.224 15.224 0 0 0 443.559 56.857 A 11.115 11.115 0 0 0 440.655 50.65 A 9.938 9.938 0 0 0 435.597 47.784 A 14.959 14.959 0 0 0 432.105 47.4 A 18.46 18.46 0 0 0 427.469 47.988 A 20.649 20.649 0 0 0 421.405 50.7 A 22.297 22.297 0 0 0 416.976 54.481 A 27.034 27.034 0 0 0 413.105 60.1 A 26.913 26.913 0 0 0 410.656 66.923 A 34.687 34.687 0 0 0 409.905 74.3 A 26.418 26.418 0 0 0 410.107 77.658 A 62.979 62.979 0 0 1 408.33 79.497 A 33.253 33.253 0 0 1 406.605 81.1 Q 405.227 82.281 403.873 82.881 A 6.792 6.792 0 0 1 401.105 83.5 Q 399.005 83.5 397.655 81 A 8.713 8.713 0 0 1 397.147 79.851 Q 396.224 77.325 395.905 72.7 A 221.206 221.206 0 0 0 402.285 60.963 A 180.382 180.382 0 0 0 410.605 41.9 A 117.974 117.974 0 0 0 412.782 35.409 Q 414.368 30.156 415.197 25.427 A 56.471 56.471 0 0 0 416.105 15.7 Q 416.105 10.763 414.992 7.388 A 12.507 12.507 0 0 0 413.255 3.9 A 12.179 12.179 0 0 0 412.413 2.867 A 8.247 8.247 0 0 0 406.105 0 A 10.253 10.253 0 0 0 402.72 0.564 Q 398.077 2.175 394.556 8.393 A 41.239 41.239 0 0 0 392.055 13.75 A 87.772 87.772 0 0 0 390.581 17.843 Q 388.477 24.159 387.022 31.537 A 160.294 160.294 0 0 0 384.805 46.9 Q 377.405 47.7 371.455 52.05 Q 365.505 56.4 362.105 63.25 A 32.938 32.938 0 0 0 361.656 64.198 A 89.607 89.607 0 0 1 361.498 64.234 Q 356.881 65.272 353.305 65.5 A 27.657 27.657 0 0 0 352.958 63.139 A 21.86 21.86 0 0 0 347.855 52.55 A 14.981 14.981 0 0 0 341.443 48.217 A 17.814 17.814 0 0 0 335.605 47.3 Q 329.405 47.3 324.305 50.65 A 21.614 21.614 0 0 0 320.656 53.664 A 24.072 24.072 0 0 0 316.305 59.95 A 27.572 27.572 0 0 0 314.212 65.943 A 34.036 34.036 0 0 0 313.405 73.5 A 28.272 28.272 0 0 0 313.408 73.936 A 24.553 24.553 0 0 0 315.605 83.9 Q 317.805 88.7 322.055 91.6 A 16.069 16.069 0 0 0 327.227 93.905 A 20.705 20.705 0 0 0 332.305 94.5 A 18.053 18.053 0 0 0 338.856 93.306 A 19.822 19.822 0 0 0 345.005 89.45 A 22.918 22.918 0 0 0 349.911 83.139 A 28.513 28.513 0 0 0 352.505 76 A 52.306 52.306 0 0 0 356.915 75.634 Z M 66.788 90.338 A 42.187 42.187 0 0 0 71.599 88.45 A 15.699 15.699 0 0 0 72.705 90 A 11.86 11.86 0 0 0 77.899 93.729 A 13.778 13.778 0 0 0 82.605 94.5 Q 90.505 94.5 95.705 86.1 A 16.672 16.672 0 0 0 96.726 88.403 A 12.716 12.716 0 0 0 99.855 92.25 A 11.7 11.7 0 0 0 100.288 92.588 A 9.221 9.221 0 0 0 105.905 94.5 A 10.999 10.999 0 0 0 107.95 94.306 Q 109.788 93.959 111.678 92.993 A 20.867 20.867 0 0 0 114.805 91 A 44.987 44.987 0 0 0 118.185 88.15 A 54.085 54.085 0 0 0 123.505 82.4 A 6.749 6.749 0 0 0 124.327 81.205 A 73.247 73.247 0 0 0 125.455 79.8 A 44.956 44.956 0 0 0 126.589 78.284 Q 129.08 74.805 131.605 70 Q 132.349 70.85 133.149 71.855 A 73.558 73.558 0 0 1 134.605 73.75 Q 136.205 75.9 137.255 78.2 Q 138.305 80.5 138.405 83.1 A 40.679 40.679 0 0 1 137.937 83.045 Q 137.095 82.942 135.755 82.75 Q 134.005 82.5 132.705 82.5 Q 129.005 82.5 127.105 84.4 A 7.796 7.796 0 0 0 127.046 84.46 A 6.138 6.138 0 0 0 125.205 88.9 A 6.34 6.34 0 0 0 126.389 92.579 A 9.419 9.419 0 0 0 127.955 94.3 Q 130.705 96.7 135.905 96.7 Q 141.405 96.7 145.405 93.3 A 39.966 39.966 0 0 0 147.147 93.211 Q 149.703 93.023 151.917 92.509 A 21.732 21.732 0 0 0 156.655 90.85 A 19.456 19.456 0 0 0 159.887 88.798 A 31.342 31.342 0 0 0 161.359 87.575 A 15.755 15.755 0 0 0 162.855 90.35 A 12.208 12.208 0 0 0 163.792 91.553 A 8.258 8.258 0 0 0 170.205 94.5 A 8.413 8.413 0 0 0 171.949 94.318 Q 174.999 93.673 177.805 90.75 A 17.233 17.233 0 0 0 179.676 88.409 Q 181.959 85.007 183.405 79.8 A 380.176 380.176 0 0 1 182.994 82.859 Q 182.341 87.567 181.805 90.4 L 181.505 92.7 Q 174.483 98.081 169.55 102.666 A 84.129 84.129 0 0 0 164.955 107.25 Q 161.116 111.417 158.87 114.96 A 26.719 26.719 0 0 0 156.955 118.5 Q 154.805 123.4 154.805 128.1 A 14.662 14.662 0 0 0 154.918 129.944 A 10.575 10.575 0 0 0 158.005 136.35 A 10.533 10.533 0 0 0 162.475 138.98 A 13.461 13.461 0 0 0 166.305 139.5 A 13.857 13.857 0 0 0 173.841 137.319 Q 176.365 135.726 178.561 132.973 A 32.613 32.613 0 0 0 181.955 127.65 A 75.028 75.028 0 0 0 185.934 118.378 Q 189.422 108.629 191.905 95.1 L 211.105 82.2 Q 212.605 81.2 213.305 79.9 A 4.943 4.943 0 0 0 213.709 78.871 Q 214.005 77.797 214.005 76.3 Q 214.005 74.4 213.255 73.15 A 3.273 3.273 0 0 0 212.941 72.71 A 2.186 2.186 0 0 0 211.205 71.9 Q 210.518 71.9 209.688 72.278 A 7.207 7.207 0 0 0 208.905 72.7 Q 201.605 77.5 193.905 83.3 L 196.505 67.2 Q 199.105 52.5 199.105 50 A 4.199 4.199 0 0 0 199.103 49.881 Q 199.092 49.471 198.999 49.132 A 1.919 1.919 0 0 0 198.205 48 A 2.402 2.402 0 0 0 197.734 47.762 Q 196.792 47.4 195.005 47.4 Q 193.033 47.4 191.65 47.865 A 5.254 5.254 0 0 0 190.055 48.7 A 5.37 5.37 0 0 0 189.05 49.755 Q 188.566 50.416 188.188 51.291 A 12.336 12.336 0 0 0 187.605 53 A 175.362 175.362 0 0 1 186.472 57.018 Q 184.607 63.33 182.655 68 A 89.066 89.066 0 0 1 182.165 69.151 Q 180.675 72.578 179.291 74.922 A 23.883 23.883 0 0 1 177.855 77.1 A 22.589 22.589 0 0 1 177.711 77.29 Q 175.557 80.1 174.105 80.1 Q 172.399 80.1 172.079 77.592 A 10.271 10.271 0 0 1 172.005 76.3 Q 172.005 74.65 172.289 72.362 A 63.407 63.407 0 0 1 172.605 70.15 Q 173.205 66.4 174.005 62.3 A 74.279 74.279 0 0 1 174.044 62.106 Q 174.34 60.645 174.73 59.02 A 124.01 124.01 0 0 1 175.605 55.6 A 198.933 198.933 0 0 0 175.902 54.34 Q 176.529 51.642 176.666 50.634 A 3.471 3.471 0 0 0 176.705 50.2 A 4.518 4.518 0 0 0 176.704 50.124 Q 176.682 48.781 175.855 48.1 A 2.096 2.096 0 0 0 175.444 47.84 Q 174.548 47.4 172.805 47.4 Q 170.246 47.4 168.591 47.96 A 5.57 5.57 0 0 0 167.105 48.7 A 5.856 5.856 0 0 0 166.116 49.611 Q 165.011 50.882 164.305 53 A 98.87 98.87 0 0 0 162.651 58.564 A 78.663 78.663 0 0 0 161.005 66.25 A 75.931 75.931 0 0 0 160.304 72.171 A 98.01 98.01 0 0 0 160.076 76.083 A 49.254 49.254 0 0 1 157.261 78.97 Q 155.649 80.481 154.164 81.517 A 14.721 14.721 0 0 1 151.105 83.2 A 50.435 50.435 0 0 0 151.188 82.4 Q 151.305 81.166 151.305 80.4 Q 151.305 76.9 149.655 73.95 Q 148.572 72.014 146.822 69.54 A 96.454 96.454 0 0 0 144.805 66.8 A 73.042 73.042 0 0 1 144.607 66.556 Q 143.228 64.849 142.324 63.513 A 21.516 21.516 0 0 1 141.555 62.3 Q 140.981 61.316 140.721 60.421 A 5.085 5.085 0 0 1 140.505 59 Q 140.505 57.281 141.356 55.043 A 23.412 23.412 0 0 1 142.305 52.9 A 16.071 16.071 0 0 0 142.557 52.413 A 14.116 14.116 0 0 0 143.405 50.3 A 16.869 16.869 0 0 0 143.575 49.714 Q 143.805 48.856 143.805 48.4 A 1.583 1.583 0 0 0 143.261 47.15 A 2.248 2.248 0 0 0 142.705 46.8 A 3.822 3.822 0 0 0 142.024 46.575 Q 141.267 46.393 140.099 46.331 A 24.733 24.733 0 0 0 138.805 46.3 A 16.214 16.214 0 0 0 138.702 46.301 Q 132.789 46.338 130.905 50.7 Q 128.705 55.9 126.405 60.75 Q 124.824 64.085 123.526 66.497 A 62.792 62.792 0 0 1 122.405 68.5 A 57.531 57.531 0 0 1 122.144 68.907 Q 120.268 71.801 117.279 75.685 A 212.651 212.651 0 0 1 114.565 79.131 A 73.965 73.965 0 0 1 114.274 79.431 A 39.347 39.347 0 0 1 112.605 81.05 Q 109.905 83.5 108.005 83.5 A 3.041 3.041 0 0 1 107.784 83.492 A 2.394 2.394 0 0 1 106.055 82.6 A 2.866 2.866 0 0 1 105.853 82.326 Q 105.536 81.837 105.402 81.201 A 4.872 4.872 0 0 1 105.305 80.2 A 19.067 19.067 0 0 1 105.308 79.88 Q 105.365 76.451 106.626 69.36 A 245.902 245.902 0 0 1 107.605 64.2 A 306.979 306.979 0 0 0 107.792 63.209 Q 109.105 56.165 109.105 54.2 A 4.851 4.851 0 0 0 109.103 54.059 Q 109.005 50.7 104.205 50.7 Q 101.905 50.7 99.805 51.1 A 16.337 16.337 0 0 0 99.638 50.428 Q 99.185 48.764 98.555 48.05 A 1.767 1.767 0 0 0 98.174 47.729 Q 97.341 47.2 95.605 47.2 A 21.082 21.082 0 0 0 89.404 48.124 A 24.014 24.014 0 0 0 82.555 51.55 Q 76.405 55.9 72.705 63.05 A 32.51 32.51 0 0 0 69.02 77.116 A 77.005 77.005 0 0 1 64.015 78.717 A 109.573 109.573 0 0 1 56.555 80.55 A 97.151 97.151 0 0 1 50.308 81.66 A 79.641 79.641 0 0 1 39.005 82.5 Q 30.318 82.5 24.863 81.003 A 20.047 20.047 0 0 1 20.605 79.35 A 14.345 14.345 0 0 1 19.14 78.441 Q 14.805 75.36 14.805 70 A 10.712 10.712 0 0 1 15.399 66.467 A 12.452 12.452 0 0 1 17.255 63.05 A 12.01 12.01 0 0 1 18.932 61.259 Q 20.173 60.17 21.832 59.241 A 25.789 25.789 0 0 1 25.155 57.7 Q 28.583 56.379 33.137 55.81 A 57.856 57.856 0 0 1 38.905 55.4 Q 43.604 55.322 44.623 51.256 A 10.548 10.548 0 0 0 44.905 48.7 Q 44.905 47.437 44.579 46.608 A 2.615 2.615 0 0 0 44.005 45.7 Q 43.344 45.039 41.982 44.81 A 8.949 8.949 0 0 0 40.905 44.7 A 48.27 48.27 0 0 1 39.383 44.624 Q 34.701 44.314 31.575 43.122 A 12.083 12.083 0 0 1 28.355 41.35 A 12.281 12.281 0 0 1 27.559 40.663 A 9.326 9.326 0 0 1 24.505 33.6 Q 24.505 27.5 29.605 23.9 Q 32.952 21.538 37.763 20.726 A 32.734 32.734 0 0 1 43.205 20.3 A 32.409 32.409 0 0 1 44.406 20.322 Q 49.77 20.521 52.205 22.55 Q 54.905 24.8 54.905 28.4 Q 54.905 29.6 54.405 32.9 A 17.917 17.917 0 0 0 54.046 34.709 A 13.382 13.382 0 0 0 53.905 36.6 A 6.309 6.309 0 0 0 54.046 37.974 A 4.02 4.02 0 0 0 55.505 40.35 Q 56.568 41.18 58.159 41.459 A 10.13 10.13 0 0 0 59.905 41.6 A 8.644 8.644 0 0 0 60.068 41.599 Q 63.949 41.525 66.055 37.95 A 13.156 13.156 0 0 0 67.049 35.844 Q 68.205 32.727 68.205 28.4 A 22.34 22.34 0 0 0 68.167 27.091 A 17.258 17.258 0 0 0 62.005 14.55 A 18.95 18.95 0 0 0 56.508 11.3 Q 51.173 9.2 43.405 9.2 Q 34.205 9.2 26.505 12.2 A 35.009 35.009 0 0 0 22.211 14.206 A 27.266 27.266 0 0 0 14.255 20.75 Q 9.705 26.3 9.705 33.5 Q 9.705 38.8 12.855 43.1 A 15.056 15.056 0 0 0 17.269 47.115 A 19.201 19.201 0 0 0 21.905 49.1 Q 11.105 51.8 5.555 57.85 Q 0.005 63.9 0.005 72.5 Q 0.005 78.8 4.155 83.8 A 19.378 19.378 0 0 0 6.569 86.222 Q 8.674 88.001 11.475 89.437 A 38.581 38.581 0 0 0 16.805 91.65 A 45.188 45.188 0 0 0 21.015 92.83 Q 24.71 93.682 29.032 94.099 A 92.482 92.482 0 0 0 37.905 94.5 Q 47.005 94.5 56.405 92.85 A 91.865 91.865 0 0 0 60.953 91.938 Q 64.111 91.218 66.788 90.338 Z M 274.705 66.9 L 270.405 91 A 27.233 27.233 0 0 1 268.831 96.585 Q 265.526 104.571 257.476 104.887 A 17.116 17.116 0 0 1 256.805 104.9 Q 250.705 104.9 245.555 101.3 A 20.738 20.738 0 0 1 240.567 96.271 Q 238.953 94.006 237.666 91.133 A 37.235 37.235 0 0 1 237.305 90.3 Q 234.655 83.975 234.271 75.166 A 70.254 70.254 0 0 1 234.205 72.1 A 104.81 104.81 0 0 1 235.286 56.621 Q 236.52 48.364 239.164 41.43 A 59.186 59.186 0 0 1 240.755 37.65 A 57.538 57.538 0 0 1 247.348 26.628 A 43.272 43.272 0 0 1 258.355 16.45 Q 269.405 9.4 282.705 9.4 A 44.671 44.671 0 0 1 289.872 9.945 Q 294.766 10.741 298.655 12.7 A 25.709 25.709 0 0 1 304.635 16.799 A 21.707 21.707 0 0 1 308.555 21.65 A 24.137 24.137 0 0 1 311.865 32.864 A 29.132 29.132 0 0 1 311.905 34.4 Q 311.905 42.9 307.505 50 A 31.021 31.021 0 0 1 299.114 58.863 A 39.444 39.444 0 0 1 294.705 61.6 A 43.118 43.118 0 0 1 284.243 65.492 A 58.881 58.881 0 0 1 274.705 66.9 Z M 257.305 85.5 L 260.605 66.6 Q 256.844 66.022 257.175 66.094 A 1.763 1.763 0 0 0 257.205 66.1 A 12.234 12.234 0 0 1 255.836 65.797 Q 254.431 65.393 253.703 64.714 A 2.626 2.626 0 0 1 253.305 64.25 A 5.092 5.092 0 0 1 252.603 62.604 Q 252.442 61.938 252.412 61.164 A 9.351 9.351 0 0 1 252.405 60.8 A 6.286 6.286 0 0 1 252.567 59.335 A 4.327 4.327 0 0 1 253.655 57.3 A 4.117 4.117 0 0 1 255.808 56.13 A 6.125 6.125 0 0 1 257.105 56 A 16.466 16.466 0 0 1 257.574 56.006 Q 258.07 56.021 258.405 56.067 A 3.383 3.383 0 0 1 258.605 56.1 Q 261.005 56.5 262.305 56.6 Q 263.3 50.628 264.941 41.55 A 2413.394 2413.394 0 0 1 266.005 35.7 A 10.208 10.208 0 0 1 266.549 33.722 Q 267.294 31.836 268.755 30.85 Q 270.905 29.4 273.805 29.4 A 13.772 13.772 0 0 1 275.471 29.494 Q 277.502 29.742 278.555 30.65 A 3.852 3.852 0 0 1 279.676 32.356 Q 279.897 32.999 279.97 33.791 A 8.867 8.867 0 0 1 280.005 34.6 Q 280.005 36.2 279.805 37.2 L 276.505 56.6 Q 293.909 54.393 296.537 40.582 A 28.25 28.25 0 0 0 297.005 35.3 A 16.309 16.309 0 0 0 296.231 30.167 A 13.513 13.513 0 0 0 292.655 24.55 A 13.303 13.303 0 0 0 287.94 21.713 Q 285.906 20.975 283.396 20.652 A 32.878 32.878 0 0 0 279.205 20.4 Q 268.905 20.4 261.255 26.9 A 36.635 36.635 0 0 0 253.426 36.362 A 50.793 50.793 0 0 0 249.455 44.95 A 68.695 68.695 0 0 0 246.099 58.972 A 91.691 91.691 0 0 0 245.305 71.3 A 52.441 52.441 0 0 0 245.58 76.805 Q 245.872 79.566 246.473 81.98 A 31.823 31.823 0 0 0 246.555 82.3 A 32.985 32.985 0 0 0 247.494 85.338 Q 248.474 88.009 249.755 89.75 A 11.608 11.608 0 0 0 250.691 90.878 Q 251.784 92.026 252.829 92.308 A 2.584 2.584 0 0 0 253.505 92.4 A 2.053 2.053 0 0 0 255.033 91.64 Q 256.222 90.343 257.027 86.839 A 34.654 34.654 0 0 0 257.305 85.5 Z M 405.005 9.8 A 1.501 1.501 0 0 0 403.981 10.291 Q 402.924 11.303 401.867 14.404 A 41.745 41.745 0 0 0 401.205 16.55 Q 399.305 23.3 397.955 34.2 Q 396.605 45.1 396.005 57 A 187.855 187.855 0 0 0 401.419 44.035 Q 406.239 31.042 407.044 21.491 A 43.99 43.99 0 0 0 407.205 17.8 Q 407.205 14 406.555 11.9 A 8.693 8.693 0 0 0 406.303 11.187 Q 405.809 9.978 405.19 9.823 A 0.758 0.758 0 0 0 405.005 9.8 Z M 93.305 74.9 L 97.005 56.5 A 11.707 11.707 0 0 0 90.495 58.689 A 15.265 15.265 0 0 0 89.255 59.65 A 19.709 19.709 0 0 0 85.139 64.629 A 25.263 25.263 0 0 0 83.605 67.7 Q 81.505 72.7 81.505 78.3 A 12.33 12.33 0 0 0 81.604 79.917 Q 81.854 81.805 82.739 82.881 A 3.841 3.841 0 0 0 82.755 82.9 A 4.086 4.086 0 0 0 85.541 84.364 A 5.852 5.852 0 0 0 86.205 84.4 Q 88.405 84.4 90.405 81.8 Q 92.405 79.2 93.305 74.9 Z M 471.305 74.9 L 475.005 56.5 A 11.707 11.707 0 0 0 468.495 58.689 A 15.265 15.265 0 0 0 467.255 59.65 A 19.709 19.709 0 0 0 463.139 64.629 A 25.263 25.263 0 0 0 461.605 67.7 Q 459.505 72.7 459.505 78.3 A 12.33 12.33 0 0 0 459.604 79.917 Q 459.854 81.805 460.739 82.881 A 3.841 3.841 0 0 0 460.755 82.9 A 4.086 4.086 0 0 0 463.541 84.364 A 5.852 5.852 0 0 0 464.205 84.4 Q 466.405 84.4 468.405 81.8 Q 470.405 79.2 471.305 74.9 Z M 335.705 57.9 L 335.205 57.9 A 7.373 7.373 0 0 0 329.687 60.345 A 11.395 11.395 0 0 0 328.555 61.75 A 13.286 13.286 0 0 0 326.815 65.479 Q 325.905 68.499 325.905 72.6 A 22.559 22.559 0 0 0 326.11 75.747 Q 326.569 78.995 328.055 81 A 8.845 8.845 0 0 0 329.472 82.529 A 5.53 5.53 0 0 0 333.105 83.9 A 7.088 7.088 0 0 0 338.131 81.838 A 9.727 9.727 0 0 0 338.655 81.3 A 10.806 10.806 0 0 0 340.441 78.528 Q 341.016 77.272 341.405 75.739 A 22.846 22.846 0 0 0 341.805 73.8 Q 338.705 71.7 337.055 68.3 Q 335.405 64.9 335.405 61.1 Q 335.405 59.5 335.705 57.9 Z M 376.205 84.4 A 5.087 5.087 0 0 0 378.343 83.91 Q 379.044 83.588 379.745 83.055 A 9.612 9.612 0 0 0 380.005 82.85 A 12.592 12.592 0 0 0 381.149 81.773 Q 382.319 80.542 383.779 78.547 A 65.559 65.559 0 0 0 384.805 77.1 Q 383.805 71.7 383.805 65 Q 383.805 62.6 384.005 57.2 A 15.62 15.62 0 0 0 376.99 61.756 A 21.405 21.405 0 0 0 374.855 64.55 Q 371.205 70.2 371.205 77.1 A 15.776 15.776 0 0 0 371.396 79.673 Q 372.154 84.236 375.929 84.394 A 6.571 6.571 0 0 0 376.205 84.4 Z M 565.105 16.3 A 1.619 1.619 0 0 0 564.19 16.626 Q 563.186 17.319 562.045 19.482 A 23.496 23.496 0 0 0 561.755 20.05 Q 559.905 23.8 558.255 30.45 Q 556.605 37.1 555.505 45.2 A 36.677 36.677 0 0 0 561.471 38.703 A 31.376 31.376 0 0 0 564.355 33.75 A 37.252 37.252 0 0 0 566.153 29.149 Q 566.943 26.613 567.191 24.289 A 19.652 19.652 0 0 0 567.305 22.2 Q 567.305 17.647 565.995 16.607 A 1.392 1.392 0 0 0 565.105 16.3 Z M 172.599 124.74 A 36.133 36.133 0 0 0 173.005 124 Q 175.405 119.51 177.805 110.405 A 184.128 184.128 0 0 0 179.205 104.7 A 90.074 90.074 0 0 0 174.808 108.65 Q 170.427 112.872 168.055 116.55 Q 165.879 119.924 165.076 122.761 A 11.534 11.534 0 0 0 164.605 125.9 Q 164.605 127.6 165.255 128.7 Q 165.905 129.8 167.405 129.8 Q 169.74 129.8 172.599 124.74 Z"/></g></svg>
