<svg width="147.806" height="95.701" viewBox="0 0 147.806 95.701" xmlns="http://www.w3.org/2000/svg"><g id="svgGroup" stroke-linecap="round" fill-rule="evenodd" font-size="9pt" style="fill:#f28c18"><path d="M 71.705 79.201 A 20.271 20.271 0 0 0 72.369 78.865 A 36.943 36.943 0 0 0 73.205 81.101 A 37.235 37.235 0 0 0 73.566 81.934 Q 74.853 84.806 76.467 87.071 A 20.738 20.738 0 0 0 81.455 92.101 Q 86.605 95.701 92.705 95.701 A 17.116 17.116 0 0 0 93.376 95.688 Q 101.426 95.372 104.731 87.386 A 27.233 27.233 0 0 0 106.305 81.801 L 110.605 57.701 A 58.881 58.881 0 0 0 120.143 56.292 A 43.118 43.118 0 0 0 130.605 52.401 A 39.444 39.444 0 0 0 135.014 49.664 A 31.021 31.021 0 0 0 143.405 40.801 Q 147.805 33.701 147.805 25.201 A 29.132 29.132 0 0 0 147.765 23.665 A 24.137 24.137 0 0 0 144.455 12.451 A 21.707 21.707 0 0 0 140.535 7.599 A 25.709 25.709 0 0 0 134.555 3.501 Q 130.666 1.541 125.772 0.745 A 44.671 44.671 0 0 0 118.605 0.201 Q 105.305 0.201 94.255 7.251 A 43.272 43.272 0 0 0 83.248 17.428 A 57.538 57.538 0 0 0 76.655 28.451 A 59.186 59.186 0 0 0 75.064 32.23 Q 72.42 39.164 71.186 47.422 A 104.81 104.81 0 0 0 70.105 62.901 A 70.254 70.254 0 0 0 70.171 65.967 A 54.25 54.25 0 0 0 70.25 67.465 A 77.005 77.005 0 0 1 64.015 69.518 A 109.573 109.573 0 0 1 56.555 71.351 A 97.151 97.151 0 0 1 50.308 72.461 A 79.641 79.641 0 0 1 39.005 73.301 Q 30.318 73.301 24.863 71.803 A 20.047 20.047 0 0 1 20.605 70.151 A 14.345 14.345 0 0 1 19.14 69.241 Q 14.805 66.161 14.805 60.801 A 10.712 10.712 0 0 1 15.399 57.267 A 12.452 12.452 0 0 1 17.255 53.851 A 12.01 12.01 0 0 1 18.932 52.059 Q 20.173 50.97 21.832 50.041 A 25.789 25.789 0 0 1 25.155 48.501 Q 28.583 47.18 33.137 46.611 A 57.856 57.856 0 0 1 38.905 46.201 Q 43.604 46.122 44.623 42.057 A 10.548 10.548 0 0 0 44.905 39.501 Q 44.905 38.237 44.579 37.408 A 2.615 2.615 0 0 0 44.005 36.501 Q 43.344 35.84 41.982 35.61 A 8.949 8.949 0 0 0 40.905 35.501 A 48.27 48.27 0 0 1 39.383 35.425 Q 34.701 35.115 31.575 33.923 A 12.083 12.083 0 0 1 28.355 32.151 A 12.281 12.281 0 0 1 27.559 31.464 A 9.326 9.326 0 0 1 24.505 24.401 Q 24.505 18.301 29.605 14.701 Q 32.952 12.338 37.763 11.526 A 32.734 32.734 0 0 1 43.205 11.101 A 32.409 32.409 0 0 1 44.406 11.122 Q 49.77 11.321 52.205 13.351 Q 54.905 15.601 54.905 19.201 Q 54.905 20.401 54.405 23.701 A 17.917 17.917 0 0 0 54.046 25.51 A 13.382 13.382 0 0 0 53.905 27.401 A 6.309 6.309 0 0 0 54.046 28.775 A 4.02 4.02 0 0 0 55.505 31.151 Q 56.568 31.981 58.159 32.26 A 10.13 10.13 0 0 0 59.905 32.401 A 8.644 8.644 0 0 0 60.068 32.399 Q 63.949 32.326 66.055 28.751 A 13.156 13.156 0 0 0 67.049 26.645 Q 68.205 23.528 68.205 19.201 A 22.34 22.34 0 0 0 68.167 17.892 A 17.258 17.258 0 0 0 62.005 5.351 A 18.95 18.95 0 0 0 56.508 2.1 Q 51.173 0.001 43.405 0.001 Q 34.205 0.001 26.505 3.001 A 35.009 35.009 0 0 0 22.211 5.007 A 27.266 27.266 0 0 0 14.255 11.551 Q 9.705 17.101 9.705 24.301 Q 9.705 29.601 12.855 33.901 A 15.056 15.056 0 0 0 17.269 37.916 A 19.201 19.201 0 0 0 21.905 39.901 Q 11.105 42.601 5.555 48.651 Q 0.005 54.701 0.005 63.301 Q 0.005 69.601 4.155 74.601 A 19.378 19.378 0 0 0 6.569 77.023 Q 8.674 78.802 11.475 80.237 A 38.581 38.581 0 0 0 16.805 82.451 A 45.188 45.188 0 0 0 21.015 83.63 Q 24.71 84.482 29.032 84.9 A 92.482 92.482 0 0 0 37.905 85.301 Q 47.005 85.301 56.405 83.651 A 91.865 91.865 0 0 0 60.953 82.739 Q 64.111 82.018 66.788 81.139 A 42.187 42.187 0 0 0 71.705 79.201 Z M 93.205 76.301 L 96.505 57.401 Q 92.744 56.822 93.075 56.894 A 1.763 1.763 0 0 0 93.105 56.901 A 12.234 12.234 0 0 1 91.736 56.598 Q 90.331 56.193 89.603 55.515 A 2.626 2.626 0 0 1 89.205 55.051 A 5.092 5.092 0 0 1 88.503 53.405 Q 88.342 52.739 88.312 51.964 A 9.351 9.351 0 0 1 88.305 51.601 A 6.286 6.286 0 0 1 88.467 50.136 A 4.327 4.327 0 0 1 89.555 48.101 A 4.117 4.117 0 0 1 91.708 46.931 A 6.125 6.125 0 0 1 93.005 46.801 A 16.466 16.466 0 0 1 93.474 46.807 Q 93.97 46.821 94.305 46.867 A 3.383 3.383 0 0 1 94.505 46.901 Q 96.905 47.301 98.205 47.401 Q 99.2 41.429 100.841 32.35 A 2413.394 2413.394 0 0 1 101.905 26.501 A 10.208 10.208 0 0 1 102.449 24.523 Q 103.194 22.636 104.655 21.651 Q 106.805 20.201 109.705 20.201 A 13.772 13.772 0 0 1 111.371 20.294 Q 113.402 20.542 114.455 21.451 A 3.852 3.852 0 0 1 115.576 23.157 Q 115.797 23.8 115.87 24.592 A 8.867 8.867 0 0 1 115.905 25.401 Q 115.905 27.001 115.705 28.001 L 112.405 47.401 Q 129.809 45.193 132.437 31.382 A 28.25 28.25 0 0 0 132.905 26.101 A 16.309 16.309 0 0 0 132.131 20.968 A 13.513 13.513 0 0 0 128.555 15.351 A 13.303 13.303 0 0 0 123.84 12.514 Q 121.806 11.775 119.296 11.452 A 32.878 32.878 0 0 0 115.105 11.201 Q 104.805 11.201 97.155 17.701 A 36.635 36.635 0 0 0 89.326 27.163 A 50.793 50.793 0 0 0 85.355 35.751 A 68.695 68.695 0 0 0 81.999 49.773 A 91.691 91.691 0 0 0 81.205 62.101 A 52.441 52.441 0 0 0 81.48 67.606 Q 81.772 70.367 82.373 72.78 A 31.823 31.823 0 0 0 82.455 73.101 A 32.985 32.985 0 0 0 83.394 76.139 Q 84.374 78.809 85.655 80.551 A 11.608 11.608 0 0 0 86.591 81.679 Q 87.684 82.826 88.729 83.108 A 2.584 2.584 0 0 0 89.405 83.201 A 2.053 2.053 0 0 0 90.933 82.44 Q 92.122 81.144 92.927 77.64 A 34.654 34.654 0 0 0 93.205 76.301 Z" vector-effect="non-scaling-stroke"/></g></svg>
